<svg xmlns="http://www.w3.org/2000/svg" viewBox="0 0 71 71"><defs><style>.cls-1{fill:#fff;}.cls-2,.cls-3,.cls-4{fill:none;}.cls-2{stroke:#231f20;stroke-miterlimit:10;}.cls-3{stroke:#4cae9e;}.cls-3,.cls-4{stroke-linecap:round;stroke-linejoin:round;}.cls-4{stroke:#33bf9a;}</style></defs><title>Asset 228</title><g id="Layer_2" data-name="Layer 2"><g id="Layer_1-2" data-name="Layer 1"><rect class="cls-1" width="71" height="71" rx="13.97"/><polyline class="cls-2" points="13.82 16.19 13.82 53.26 58.63 53.26"/><line class="cls-2" x1="12.37" y1="23.97" x2="15.28" y2="23.97"/><line class="cls-2" x1="12.37" y1="30.92" x2="15.28" y2="30.92"/><line class="cls-2" x1="12.37" y1="37.87" x2="15.28" y2="37.87"/><line class="cls-2" x1="12.37" y1="44.82" x2="15.28" y2="44.82"/><line class="cls-2" x1="43.16" y1="51.8" x2="43.16" y2="54.72"/><line class="cls-2" x1="49.89" y1="51.9" x2="49.89" y2="54.81"/><line class="cls-2" x1="36.21" y1="51.8" x2="36.21" y2="54.72"/><line class="cls-2" x1="29.26" y1="51.8" x2="29.26" y2="54.72"/><line class="cls-2" x1="22.31" y1="51.8" x2="22.31" y2="54.72"/><circle class="cls-3" cx="24.59" cy="43.95" r="0.7"/><circle class="cls-4" cx="29.8" cy="31.62" r="0.7"/><circle class="cls-4" cx="45.65" cy="29.14" r="0.7"/><circle class="cls-4" cx="52.12" cy="19.81" r="0.7"/><polyline class="cls-4" points="24.4 44.39 29.8 31.62 45.65 29.14 52.43 19.36"/></g></g></svg>