<svg xmlns="http://www.w3.org/2000/svg" viewBox="0 0 71 71"><defs><style>.cls-1{fill:#fff;}.cls-2,.cls-3{fill:none;stroke-miterlimit:10;}.cls-2{stroke:#231f20;}.cls-3{stroke:#33bf9a;}.cls-4{fill:#231f20;}</style></defs><title>Asset 223</title><g id="Layer_2" data-name="Layer 2"><g id="Layer_1-2" data-name="Layer 1"><rect class="cls-1" width="71" height="71" rx="13.97"/><path class="cls-2" d="M49.21,18.07c-9.52.24-13.71-2.31-13.71-2.31s-4.19,2.55-13.71,2.31c0,0-3.51,4.19-3.31,14s5,14,6.66,15.73,6.77,6,10.36,7.46c3.59-1.44,8.86-5.7,10.48-7.44s6.34-6,6.54-15.75S49.21,18.07,49.21,18.07Z"/><path class="cls-2" d="M46.09,22.08c-7.35.18-10.59-1.86-10.59-1.86s-3.24,2-10.59,1.86c0,0-2.71,3.24-2.56,10.79a16.49,16.49,0,0,0,5.18,12.27,29.36,29.36,0,0,0,8,5.64,30.07,30.07,0,0,0,8.06-5.68c1.25-1.34,4.93-4.67,5.09-12.23S46.09,22.08,46.09,22.08Z"/><path class="cls-3" d="M40.22,32.34v0H30.79v0c0-3.22,2.11-5.82,4.71-5.82S40.22,29.12,40.22,32.34Z"/><path class="cls-3" d="M41.07,32.38V38.8a4.37,4.37,0,0,1-4.37,4.37H34.29a4.37,4.37,0,0,1-4.36-4.37V32.38Z"/><path class="cls-4" d="M36.66,36.81a1.16,1.16,0,1,0-1.87.9l-.22,3h1.86l-.21-3A1.14,1.14,0,0,0,36.66,36.81Z"/></g></g></svg>