<svg xmlns="http://www.w3.org/2000/svg" viewBox="0 0 71 71"><defs><style>.cls-1{fill:#fff;}.cls-2,.cls-3,.cls-4,.cls-5,.cls-6,.cls-8,.cls-9{fill:none;}.cls-2,.cls-3,.cls-4,.cls-5,.cls-8{stroke:#231f20;}.cls-2,.cls-3,.cls-4,.cls-5{stroke-miterlimit:10;}.cls-3{stroke-dasharray:4.9 4.9;}.cls-4{stroke-dasharray:5;}.cls-5{stroke-dasharray:2;}.cls-7{fill:#231f20;}.cls-8,.cls-9{stroke-linecap:round;stroke-linejoin:round;}.cls-8{stroke-width:0.75px;}.cls-9{stroke:#33bf9a;stroke-width:0.5px;}</style></defs><title>Asset 231</title><g id="Layer_2" data-name="Layer 2"><g id="Layer_1-2" data-name="Layer 1"><rect class="cls-1" width="71" height="71" rx="13.97"/><path class="cls-2" d="M13.68,35.49a20.72,20.72,0,0,1,.15-2.5"/><path class="cls-3" d="M14.92,28.23a21.87,21.87,0,0,1,41.94,2.35"/><path class="cls-2" d="M57.27,33a20.72,20.72,0,0,1,.15,2.5"/><path class="cls-4" d="M57.42,35.51A21.87,21.87,0,0,1,35.55,57.37"/><path class="cls-4" d="M57.19,32.52A21.87,21.87,0,0,1,38.55,57.19"/><path class="cls-5" d="M13.9,38.61a21.14,21.14,0,0,1-.22-3.1"/><path class="cls-5" d="M14.93,42.8A21.86,21.86,0,0,0,35.55,57.38"/><polygon class="cls-6" points="16.17 38.55 15.83 42.87 14.93 42.8 13.58 42.69 13.9 38.6 13.92 38.37 16.17 38.55"/><path class="cls-2" d="M13.68,35.49a21.87,21.87,0,1,1,43.74,0"/><polygon class="cls-7" points="16.61 33.27 13.69 34.51 10.76 33.27 13.69 40.21 16.61 33.27"/><polygon class="cls-8" points="34.87 25.14 30.36 25.14 30.36 30.99 34.87 35.5 39.37 30.99 39.37 25.14 34.87 25.14"/><polygon class="cls-8" points="34.87 45.69 30.36 45.69 30.36 39.84 34.87 35.33 39.37 39.84 39.37 45.69 34.87 45.69"/><line class="cls-9" x1="34" y1="28.21" x2="35.93" y2="28.21"/><line class="cls-9" x1="34" y1="29.93" x2="35.93" y2="29.93"/><line class="cls-9" x1="34.34" y1="31.61" x2="35.59" y2="31.61"/><rect class="cls-9" x="34.62" y="42.17" width="0.53" height="0.04"/></g></g></svg>