<svg xmlns="http://www.w3.org/2000/svg" viewBox="0 0 71 71"><defs><style>.cls-1,.cls-5{fill:#fff;}.cls-2,.cls-3,.cls-4{fill:none;}.cls-2{stroke:#33bf9a;}.cls-2,.cls-3,.cls-4,.cls-5{stroke-linecap:round;stroke-linejoin:round;}.cls-3,.cls-4,.cls-5{stroke:#231f20;}.cls-4{stroke-width:0.75px;}</style></defs><title>Asset 229</title><g id="Layer_2" data-name="Layer 2"><g id="Layer_1-2" data-name="Layer 1"><rect class="cls-1" width="71" height="71" rx="13.97"/><path class="cls-2" d="M56.6,37v2.17a.51.51,0,0,1-.51.51H52a2.92,2.92,0,0,1,.05.6,3.52,3.52,0,0,1-7,0,3.83,3.83,0,0,1,0-.6H42.41a.11.11,0,0,1-.11-.12V35.77h-.09V39.3a.39.39,0,0,1-.39.4H27.25a3.83,3.83,0,0,1,.05.6,3.52,3.52,0,0,1-7,0,3.83,3.83,0,0,1,.05-.6H14.79a.39.39,0,0,1-.39-.4V37C6.13,38.24.79,40.16.79,42.32.79,46,16.33,49,35.5,49s34.71-3,34.71-6.68C70.21,40.16,64.87,38.24,56.6,37Z"/><polygon class="cls-3" points="56.43 31.96 42.21 32.06 42.13 32.06 42.13 22 47.76 22 56.43 31.96"/><polygon class="cls-4" points="52.5 30.17 45.01 30.23 45.01 24.96 47.96 24.96 52.5 30.17"/><path class="cls-3" d="M42.21,32.06V39.3a.39.39,0,0,1-.39.4H27.25a3.52,3.52,0,0,0-6.93,0H14.79a.39.39,0,0,1-.39-.4V22.39a.38.38,0,0,1,.39-.39h27a.39.39,0,0,1,.31.15v9.91Z"/><path class="cls-5" d="M42.21,22.39v9.67h-.08V22.15A.38.38,0,0,1,42.21,22.39Z"/><path class="cls-3" d="M27.3,40.3a3.52,3.52,0,0,1-7,0,3.83,3.83,0,0,1,.05-.6,3.52,3.52,0,0,1,6.93,0A3.83,3.83,0,0,1,27.3,40.3Z"/><path class="cls-3" d="M56.6,32.17v7a.51.51,0,0,1-.51.51H52a3.52,3.52,0,0,0-6.93,0H42.41a.11.11,0,0,1-.11-.12V32.17a.1.1,0,0,1,.11-.11H56.49A.11.11,0,0,1,56.6,32.17Z"/><path class="cls-3" d="M52.06,40.3a3.52,3.52,0,0,1-7,0,3.83,3.83,0,0,1,0-.6,3.52,3.52,0,0,1,6.93,0A2.92,2.92,0,0,1,52.06,40.3Z"/><circle class="cls-4" cx="23.71" cy="40.41" r="1.85"/><circle class="cls-4" cx="48.47" cy="40.41" r="1.85"/></g></g></svg>