<svg xmlns="http://www.w3.org/2000/svg" viewBox="0 0 71 71"><defs><style>.cls-1,.cls-3{fill:#fff;}.cls-2,.cls-4{fill:none;}.cls-2,.cls-3,.cls-4{stroke:#231f20;}.cls-2,.cls-3{stroke-linecap:round;stroke-linejoin:round;}.cls-4{stroke-miterlimit:10;}.cls-5{fill:#33bf9a;}</style></defs><title>Asset 230</title><g id="Layer_2" data-name="Layer 2"><g id="Layer_1-2" data-name="Layer 1"><rect class="cls-1" width="71" height="71" rx="13.97"/><polygon class="cls-2" points="27.95 40.59 7 53.78 7 25.48 27.95 40.59"/><polygon class="cls-2" points="55.73 53.78 7 53.78 27.95 40.59 31.36 43.05 34.77 40.59 55.73 53.78"/><path class="cls-2" d="M55.73,33V53.79l-21-13.21L49.71,29.82A7.87,7.87,0,0,0,55.73,33Z"/><path class="cls-3" d="M48.17,25.49H7v-.37H48.16C48.16,25.24,48.16,25.36,48.17,25.49Z"/><path class="cls-2" d="M49.71,29.82,34.77,40.58,31.36,43,28,40.58,7,25.49H48.17A7.75,7.75,0,0,0,49.71,29.82Z"/><path class="cls-4" d="M64,25.12A7.92,7.92,0,0,1,56.08,33a2,2,0,0,1-.35,0,7.87,7.87,0,0,1-6-3.2,7.75,7.75,0,0,1-1.54-4.33c0-.13,0-.25,0-.37a7.92,7.92,0,0,1,15.83,0Z"/><path class="cls-5" d="M60.8,24.41l-3.8,1,2.51,3.07-1.25.92-2.18-3.19-2.21,3.19-1.26-.92,2.52-3.07-3.77-1,.49-1.53,3.58,1.32-.15-3.81h1.57l-.16,3.81,3.62-1.32Z"/></g></g></svg>