<svg xmlns="http://www.w3.org/2000/svg" viewBox="0 0 71 71"><defs><style>.cls-1{fill:#fff;}.cls-2,.cls-3,.cls-4{fill:none;}.cls-2,.cls-4{stroke:#231f20;}.cls-2{stroke-miterlimit:10;}.cls-3{stroke:#33bf9a;}.cls-3,.cls-4{stroke-linecap:square;stroke-linejoin:round;}</style></defs><title>Asset 227</title><g id="Layer_2" data-name="Layer 2"><g id="Layer_1-2" data-name="Layer 1"><rect class="cls-1" width="71" height="71" rx="13.97"/><path class="cls-2" d="M54,26.62a6.18,6.18,0,0,0-6.18-6.17h-.29c-.05-3.78-2.84-6.83-6.27-6.83a6.38,6.38,0,0,0-6,4.8,5.9,5.9,0,0,0-9,3.21,5.59,5.59,0,0,0-3.43-1.19A6,6,0,0,0,17,26.62a6,6,0,0,0,5.81,6.18H48.21v0A6.18,6.18,0,0,0,54,26.62Z"/><polyline class="cls-3" points="31.88 37.49 31.88 43.38 30.08 41.57"/><polyline class="cls-3" points="31.95 37.49 31.95 43.38 33.76 41.57"/><polyline class="cls-3" points="39.12 43.38 39.12 37.49 40.92 39.3"/><polyline class="cls-3" points="39.05 43.38 39.05 37.49 37.24 39.3"/><rect class="cls-4" x="27.68" y="49.5" width="5.98" height="7.87"/><line class="cls-3" x1="29.36" y1="52.05" x2="31.99" y2="52.05"/><line class="cls-3" x1="29.36" y1="54.83" x2="31.99" y2="54.83"/><rect class="cls-4" x="36.85" y="46.25" width="6.47" height="11.13"/><line class="cls-3" x1="38.77" y1="48.99" x2="41.4" y2="48.99"/><line class="cls-3" x1="38.77" y1="51.93" x2="41.4" y2="51.93"/><line class="cls-3" x1="38.77" y1="55.01" x2="41.4" y2="55.01"/></g></g></svg>