<svg xmlns="http://www.w3.org/2000/svg" viewBox="0 0 71 71"><defs><style>.cls-1{fill:#fff;}.cls-2,.cls-3,.cls-4,.cls-5{fill:none;stroke-miterlimit:10;}.cls-2,.cls-3,.cls-5{stroke:#231f20;}.cls-3{stroke-linecap:round;}.cls-4{stroke:#33bf9a;}.cls-5{stroke-width:0.75px;}</style></defs><title>Asset 224</title><g id="Layer_2" data-name="Layer 2"><g id="Layer_1-2" data-name="Layer 1"><rect class="cls-1" width="71" height="71" rx="13.97"/><polyline class="cls-2" points="60.84 42.04 60.84 57.37 41.21 54.02 26.13 48.16 10.16 44.88 10.16 34.26"/><polyline class="cls-2" points="42.6 35.06 60.84 39.43 60.84 50.05"/><polyline class="cls-2" points="10.16 42.27 10.16 26.93 29.32 31.69"/><path class="cls-3" d="M36.61,43.28S46,33.14,45.68,22.78"/><path class="cls-3" d="M36.61,43.28s-9.4-10.14-9.07-20.5"/><path class="cls-2" d="M27.53,23s.29-9.39,9.3-9.39"/><path class="cls-2" d="M45.69,23s-.28-9.39-9.29-9.39"/><circle class="cls-4" cx="36.83" cy="24.11" r="3.83"/><polyline class="cls-5" points="20.23 40.48 37.23 44.48 42.23 43.48 49.23 46.48"/><line class="cls-5" x1="41.23" y1="54.48" x2="42.23" y2="45.48"/><line class="cls-5" x1="42.23" y1="43.48" x2="43.41" y2="35.25"/></g></g></svg>