<svg xmlns="http://www.w3.org/2000/svg" viewBox="0 0 173.03 173.03"><defs><style>.cls-1{fill:#fff;}.cls-2{fill:none;stroke:#00a587;}.cls-2,.cls-4{stroke-miterlimit:10;}.cls-3{font-size:11.72px;font-family:SlatePro-Light, Slate Pro;font-weight:300;}.cls-4{fill:red;stroke:red;stroke-width:0.5px;}</style></defs><title>Asset 237</title><g id="Layer_2" data-name="Layer 2"><g id="Layer_1-2" data-name="Layer 1"><rect class="cls-1" width="173.03" height="173.03" rx="40.26"/><polygon class="cls-2" points="146.56 55.86 146.56 122.63 50.17 122.63 27.5 122.63 27.5 55.86 146.56 55.86"/><rect class="cls-1" x="21.37" y="71.77" width="130.29" height="36.05"/><rect class="cls-1" x="34.48" y="44.46" width="108.14" height="84.11" transform="translate(2.03 175.06) rotate(-90)"/><path d="M122.55,103.26h-3.36a.77.77,0,0,1-.19-.05c0-.1,0-.19,0-.28-.07-2.23,0-38.88,0-39.36a.6.6,0,0,1,.16,0h3.23l.16,0a2.3,2.3,0,0,1,0,.26,2.72,2.72,0,0,1,0,.28q0,19.28,0,38.55A2.2,2.2,0,0,1,122.55,103.26Z"/><path d="M69.28,103.21a.55.55,0,0,1-.17.05H65.77a1.09,1.09,0,0,1-.06-.28c0-.14,0-.28,0-.42v-39a.69.69,0,0,1,.2-.07h3.23a.51.51,0,0,1,.14,0,.48.48,0,0,1,0,.17c0,.14,0,.28,0,.42V102.6A1.6,1.6,0,0,1,69.28,103.21Z"/><path d="M82,63.55l.29,0H84.8s0,0,.1.06a1.81,1.81,0,0,1,0,.25c.06,2.54,0,38.84,0,39.37a.66.66,0,0,1-.15.05H82.24a1.08,1.08,0,0,1-.19-.05,2.08,2.08,0,0,1,0-.23Z"/><path d="M47.56,63.58a13.07,13.07,0,0,1,2.58,0,.86.86,0,0,1,0,.17v39.34a.6.6,0,0,1-.05.14l-.22,0H47.74a.6.6,0,0,1-.14,0,.85.85,0,0,1,0-.17Z"/><path d="M39.87,63.58a8.87,8.87,0,0,1,2,0,.93.93,0,0,1,0,.25c0,.12,0,.25,0,.37v45.63a3,3,0,0,1-1,.06c-.33,0-.65,0-1,0,0-.12,0-.2-.06-.29v-46Z"/><path d="M131.61,109.87c-.68,0-1.31,0-1.91,0l-.07-.06a.09.09,0,0,1,0,0q0-22.83,0-45.66v-.42l0-.09a8,8,0,0,1,2,0c0,.08,0,.17,0,.26v45.34A2.9,2.9,0,0,1,131.61,109.87Z"/><path d="M107.77,103.23a15.79,15.79,0,0,1-1.68,0,3.22,3.22,0,0,1-.43,0c0-.1,0-.18,0-.25V63.58a4.06,4.06,0,0,1,1.09-.06,7.44,7.44,0,0,1,1,0c0,.11,0,.19,0,.28s0,.22,0,.33v38.46A2.21,2.21,0,0,1,107.77,103.23Z"/><path d="M59.4,103.2a7.17,7.17,0,0,1-1.91,0,.31.31,0,0,1-.05-.12V63.75a.86.86,0,0,1,0-.17,7.69,7.69,0,0,1,1.92,0,.56.56,0,0,1,0,.12V103A1.22,1.22,0,0,1,59.4,103.2Z"/><path d="M103.22,103.2a6.37,6.37,0,0,1-1.7,0c0-.09,0-.17,0-.26V64.21a1.73,1.73,0,0,1,0-.64,6.51,6.51,0,0,1,1.71,0c0,.08,0,.16,0,.25v38.79A1.31,1.31,0,0,1,103.22,103.2Z"/><path d="M117.74,103.25c-.62,0-1.17,0-1.73,0,0-.11-.05-.17-.05-.22V63.6a2.12,2.12,0,0,1,.89-.08,4.15,4.15,0,0,1,.86,0c0,.11,0,.2.05.28s0,.25,0,.38v38.4C117.76,102.8,117.75,103,117.74,103.25Z"/><path d="M96.32,63.55a13.58,13.58,0,0,1,1.56,0,.71.71,0,0,1,.05.18q0,19.68,0,39.38a.28.28,0,0,1,0,.12,4.6,4.6,0,0,1-1.57,0,.28.28,0,0,1,0-.12q0-19.69,0-39.38A.65.65,0,0,1,96.32,63.55Z"/><path d="M62.82,63.54c.54,0,1,0,1.52,0,0,.12,0,.21,0,.29v38.84a1.62,1.62,0,0,1,0,.54,4,4,0,0,1-1.5,0,.86.86,0,0,1,0-.17Z"/><path d="M43.92,109.87h-1l-.19,0a2,2,0,0,1,0-.2v-46a2.5,2.5,0,0,1,1.24,0,.93.93,0,0,1,0,.25c0,.13,0,.25,0,.38v45A2.49,2.49,0,0,1,43.92,109.87Z"/><path d="M77,63.55a10.94,10.94,0,0,1,1.41,0,1.92,1.92,0,0,1,0,.3c0,.12,0,.25,0,.37q0,19.2,0,38.4c0,.2,0,.4,0,.59a3.53,3.53,0,0,1-1.45,0,.56.56,0,0,1,0-.12V63.69A.6.6,0,0,1,77,63.55Z"/><path d="M91.27,103.2a4.22,4.22,0,0,1-1.42,0c0-.08,0-.17,0-.26s0-.25,0-.38V64.17a2.21,2.21,0,0,1,0-.62,13.2,13.2,0,0,1,1.41,0c0,.14,0,.23,0,.32v38.78A2.34,2.34,0,0,1,91.27,103.2Z"/><path d="M74.06,63.54a7.93,7.93,0,0,1,1.19,0c0,.12,0,.21,0,.3V102.6a2.85,2.85,0,0,1,0,.59,2.36,2.36,0,0,1-1.18,0,1.33,1.33,0,0,1,0-.21Z"/><path d="M128.54,103.22a4.82,4.82,0,0,1-1.14,0,1.51,1.51,0,0,1-.05-.28c0-.15,0-.31,0-.47V63.57a5.3,5.3,0,0,1,1.19,0c0,.13,0,.22,0,.31v38.78A2.11,2.11,0,0,1,128.54,103.22Z"/><path d="M124.88,103.22a3.33,3.33,0,0,1-1.09,0,.53.53,0,0,1-.05-.15V63.75c0-.06,0-.12,0-.21a6.61,6.61,0,0,1,1.09,0c0,.12,0,.21,0,.3s0,.25,0,.38v38.35A3.67,3.67,0,0,1,124.88,103.22Z"/><path d="M46.57,103.24h-1c0-.1,0-.19-.05-.27s0-.28,0-.43v-39a3.26,3.26,0,0,1,1.07,0,.54.54,0,0,1,.05.16q0,19.66,0,39.34A1.43,1.43,0,0,1,46.57,103.24Z"/><path d="M70.47,63.54a6.85,6.85,0,0,1,1.11,0c0,.1,0,.19,0,.28v38.83a1.94,1.94,0,0,1,0,.58,4.33,4.33,0,0,1-1.08,0c0-.11,0-.18,0-.25Z"/><path d="M100.57,103.24a3.4,3.4,0,0,1-1.06,0,.81.81,0,0,1,0-.19V63.58a3.08,3.08,0,0,1,1.09,0c0,.11,0,.19,0,.28s0,.22,0,.33V102.6A2.39,2.39,0,0,1,100.57,103.24Z"/><path d="M88.09,103.24h-.94a1.77,1.77,0,0,1-.05-.29c0-.12,0-.25,0-.37V64.17a2,2,0,0,1,0-.63,6,6,0,0,1,1,0c0,.12,0,.2,0,.29v38.79A2.3,2.3,0,0,1,88.09,103.24Z"/><path d="M133,109.85a2,2,0,0,1-.74,0,2,2,0,0,1,0-.2v-46a1.23,1.23,0,0,1,.76,0,1.36,1.36,0,0,1,0,.27c0,.14,0,.28,0,.43v44.92A3.21,3.21,0,0,1,133,109.85Z"/><path d="M51.8,103.22a1.58,1.58,0,0,1-.75,0,1.36,1.36,0,0,1,0-.27c0-.13,0-.25,0-.38q0-19.2,0-38.41a2.12,2.12,0,0,1,0-.61,1.77,1.77,0,0,1,.76,0,2.51,2.51,0,0,1,0,.27,2.62,2.62,0,0,1,0,.28v38.55A1.87,1.87,0,0,1,51.8,103.22Z"/><path d="M95.39,103.23a2.21,2.21,0,0,1-.81,0,2.56,2.56,0,0,1,0-.27c0-.14,0-.28,0-.42V64.22a2.92,2.92,0,0,1,0-.66,2.31,2.31,0,0,1,.83,0c0,.1,0,.19,0,.28v38.79A2.21,2.21,0,0,1,95.39,103.23Z"/><path d="M55.65,103.22a2,2,0,0,1-.81,0c0-.1,0-.19,0-.28V64.22a1.49,1.49,0,0,1,.06-.66,2.13,2.13,0,0,1,.8,0c0,.11,0,.2,0,.29v38.78A1.81,1.81,0,0,1,55.65,103.22Z"/><path d="M73.43,103.21a1.87,1.87,0,0,1-.71,0c0-.12,0-.21,0-.3V63.61c.26-.16.5-.06.76-.09a1.92,1.92,0,0,1,0,.3c0,.11,0,.22,0,.33v38.46A1.53,1.53,0,0,1,73.43,103.21Z"/><path d="M111.33,63.55a1.94,1.94,0,0,1,.72,0,1.26,1.26,0,0,1,0,.27c0,.11,0,.22,0,.32v38.51a2.13,2.13,0,0,1,0,.56,1.51,1.51,0,0,1-.7,0,1.38,1.38,0,0,1,0-.26Z"/><path d="M126,63.55a2.93,2.93,0,0,1,.72,0,1.41,1.41,0,0,1,0,.27c0,.13,0,.25,0,.38v39a1.4,1.4,0,0,1-.73,0A1.32,1.32,0,0,1,126,103c0-.14,0-.28,0-.42v-39Z"/><path d="M60.94,63.57a1.74,1.74,0,0,1,.67,0c0,.11,0,.2,0,.29s0,.22,0,.33V102.6a2.11,2.11,0,0,1,0,.61,1,1,0,0,1-.65,0,2.08,2.08,0,0,1,0-.23Z"/><path d="M133.68,63.59a.48.48,0,0,1,.43,0l0,.06,0,0q0,22.93,0,45.85c0,.08,0,.16,0,.23s0,.06-.05.12l-.4,0a1.77,1.77,0,0,1,0-.29c0-.13,0-.25,0-.38q0-22.5,0-45Z"/><path d="M52.6,63.54h.53c0,.11,0,.2,0,.28v38.82c0,.19,0,.37,0,.56a.63.63,0,0,1-.52,0,.72.72,0,0,1,0-.19Z"/><path d="M86.12,103.21a.64.64,0,0,1-.49,0,2,2,0,0,1,0-.26c0-.11,0-.22,0-.33V64.14c0-.18,0-.37,0-.54a.63.63,0,0,1,.5-.06,1.83,1.83,0,0,1,.06.25c0,.13,0,.25,0,.38v38.44A2,2,0,0,1,86.12,103.21Z"/><path d="M80.56,63.52h.25a.5.5,0,0,1,.13,0s0,.06,0,.08,0,.31,0,.47v38.59c0,.17,0,.34,0,.52a.62.62,0,0,1-.48,0,1.48,1.48,0,0,1,0-.19V63.69S80.52,63.61,80.56,63.52Z"/><path d="M110,103.23h-.34a.79.79,0,0,1,0-.17q0-19.65,0-39.29c0-.06,0-.12,0-.17a.31.31,0,0,1,.36,0,.2.2,0,0,1,0,.08c0,.16,0,.31,0,.47v38.54A1.45,1.45,0,0,1,110,103.23Z"/><path d="M113,63.56a.56.56,0,0,1,.15,0l.18,0s0,.07,0,.09,0,.32,0,.47v38.54c0,.19,0,.37,0,.55a.51.51,0,0,1-.15.06l-.23,0a1.2,1.2,0,0,1,0-.24C112.92,101.7,113,64,113,63.56Z"/><path d="M60.22,103.23l-.27,0a1.2,1.2,0,0,1-.05-.23c0-.16,0-.31,0-.47V64.19c0-.2,0-.4,0-.63l.3,0,0,.06,0,0q0,19.62,0,39.25a1.77,1.77,0,0,1,0,.23S60.24,103.18,60.22,103.23Z"/><path d="M92.44,103.22l-.27,0a1.2,1.2,0,0,1,0-.23c0-.14,0-.28,0-.42V64.15a1.35,1.35,0,0,1,0-.6.36.36,0,0,1,.14,0l.12,0,0,.05a.08.08,0,0,1,0,0q0,19.62,0,39.24a1.93,1.93,0,0,1,0,.24S92.46,103.17,92.44,103.22Z"/><path d="M114.75,103.22s0-.06,0-.08q0-19.68,0-39.34a1.66,1.66,0,0,1,0-.22c.22,0,.27,0,.28.1s0,.25,0,.38v38.63a3,3,0,0,1,0,.42C115,103.26,114.87,103.27,114.75,103.22Z"/><path d="M80,83.4v19.21c0,.17,0,.34,0,.51a.19.19,0,0,1-.12.11.13.13,0,0,1-.16-.12c0-.14,0-.29,0-.43V64.14a4.36,4.36,0,0,1,0-.51s.09-.09.13-.09.12.06.12.1a3.7,3.7,0,0,1,0,.47V83.4Z"/><text class="cls-3" transform="translate(54.09 112.73)">IMEI NUMBER</text><line class="cls-4" x1="29.02" y1="89.25" x2="145.89" y2="89.25"/></g></g></svg>