<svg xmlns="http://www.w3.org/2000/svg" viewBox="0 0 173.03 173.03"><defs><style>.cls-1{fill:#fe532f;}.cls-2{fill:#fff;}.cls-3{fill:#e63b18;}.cls-4{fill:#fdc703;}.cls-5{fill:#fdc704;}.cls-6{fill:#85816b;}.cls-7{fill:#fdc603;}.cls-8{fill:#fcc704;}</style></defs><title>Asset 235</title><g id="Layer_2" data-name="Layer 2"><g id="Layer_1-2" data-name="Layer 1"><path class="cls-1" d="M61.61,84.16c0,1.13,0,2.26,0,3.38,0,.31-.09.45-.42.44-.56,0-1.13,0-1.82,0l2.07-3.87Z"/><text/><rect class="cls-2" width="173.03" height="173.03" rx="40.26"/><path class="cls-3" d="M34.59,111.73a7.69,7.69,0,0,0,1.69,2.69,4.87,4.87,0,0,0,3.41,1.4h28.1q32.52,0,65,0a5.59,5.59,0,0,0,5.41-3.74,2,2,0,0,1,.21-.38c0,1.15.07,2.29,0,3.44a5.28,5.28,0,0,1-5,4.88c-.42,0-.62,0-1,0-30.48,0-61.18,0-91.67,0A7.56,7.56,0,0,1,37,119.3a5.57,5.57,0,0,1-2.48-5.1C34.6,113.37,34.58,112.55,34.59,111.73Z"/><path class="cls-4" d="M44,73.37c0-2.68-.05-5.36,0-8a3.43,3.43,0,0,1,3.29-3.23c6.06,0,12.13,0,18.19,0,0,5.07,0,10.14,0,15.21,0,.58-.16.74-.73.74q-4,0-7.9,0c-.58,0-.72-.18-.74-.74a4.07,4.07,0,0,0-4.14-4Z"/><path class="cls-5" d="M65.43,106.74c-6.07,0-12.13,0-18.19,0A3.38,3.38,0,0,1,44,103.39c-.05-2.62,0-5.25,0-7.88,2.63,0,5.26-.08,7.89,0a4.16,4.16,0,0,0,4.22-4c0-.56.2-.69.73-.69,2.66,0,5.31,0,8,0,.58,0,.67.21.67.72C65.42,96.6,65.43,101.67,65.43,106.74Z"/><path class="cls-4" d="M67.2,62.12c6.08,0,12.15,0,18.22,0a3.41,3.41,0,0,1,3.26,3.57c0,2.56,0,5.12,0,7.68-2.63,0-5.27.08-7.9,0a4.12,4.12,0,0,0-4.19,4c0,.58-.17.75-.74.74q-3.92,0-7.83,0c-.64,0-.81-.16-.81-.81C67.22,72.21,67.2,67.17,67.2,62.12Z"/><path class="cls-5" d="M88.66,95.57a73.55,73.55,0,0,1-.1,8.4,3.22,3.22,0,0,1-3.2,2.77c-6,0-12.1,0-18.15,0q0-7.62,0-15.23c0-.47.09-.7.64-.7,2.7,0,5.41,0,8.12,0,.44,0,.57.15.6.59A4,4,0,0,0,81,95.52Z"/><path class="cls-6" d="M88.66,95.57l-7.68,0a4,4,0,0,1-4.42-4.11c0-.44-.16-.59-.6-.59-2.71,0-5.42,0-8.12,0-.55,0-.64.23-.64.7q0,7.62,0,15.23H65.43c0-5.07,0-10.14,0-15.21,0-.51-.09-.72-.67-.72-2.66,0-5.31,0-8,0-.53,0-.73.13-.73.69a4.16,4.16,0,0,1-4.22,4c-2.63-.11-5.26,0-7.89,0,0-.6,0-1.2,0-1.8h7.89a2.29,2.29,0,0,0,2.43-2.28c0-.41,0-.83,0-1.24,0-4.07,0-8.14,0-12.21a2.57,2.57,0,0,0-2.81-2.86c-2.5.11-5,0-7.53,0,0-.6,0-1.19,0-1.79h8a4.07,4.07,0,0,1,4.14,4c0,.56.16.75.74.74q3.94,0,7.9,0c.57,0,.74-.16.73-.74,0-5.07,0-10.14,0-15.21H67.2c0,5.05,0,10.09,0,15.14,0,.65.17.82.81.81q3.91,0,7.83,0c.57,0,.73-.16.74-.74a4.12,4.12,0,0,1,4.19-4c2.63.1,5.27,0,7.9,0v1.79h-7.6a2.43,2.43,0,0,0-2.73,2.75c0,1.49,0,3,0,4.46,0,2.93,0,5.85,0,8.77a2.35,2.35,0,0,0,2.59,2.58h7.75ZM66.31,89c3.2,0,6.39,0,9.59,0,.51,0,.66-.14.66-.66,0-2.63,0-5.27,0-7.9,0-.54-.19-.65-.68-.65q-9.54,0-19.1,0c-.54,0-.71.14-.7.7,0,2.58,0,5.17,0,7.76,0,.63.22.76.8.75C60,89,63.16,89,66.31,89Z"/><path class="cls-7" d="M88.67,93.71H80.92a2.35,2.35,0,0,1-2.59-2.58c0-2.92,0-5.84,0-8.77,0-1.48,0-3,0-4.46a2.43,2.43,0,0,1,2.73-2.75h7.6c0,1.41,0,2.82,0,4.23C88.69,84.16,88.67,88.94,88.67,93.71Z"/><path class="cls-5" d="M44,75.16c2.51,0,5,.07,7.53,0A2.57,2.57,0,0,1,54.29,78c0,4.07,0,8.14,0,12.21,0,.41,0,.83,0,1.24a2.29,2.29,0,0,1-2.43,2.28H44Z"/><path class="cls-8" d="M66.31,89c-3.15,0-6.29,0-9.44,0-.58,0-.81-.12-.8-.75,0-2.59,0-5.18,0-7.76,0-.56.16-.7.7-.7q9.55,0,19.1,0c.49,0,.69.11.68.65,0,2.63,0,5.27,0,7.9,0,.52-.15.66-.66.66C72.7,89,69.51,89,66.31,89Z"/><path class="cls-1" d="M138.07,69.5q-7.87-7.9-15.73-15.83a2,2,0,0,0-1.59-.68q-40.18,0-80.36,0a5.7,5.7,0,0,0-5.86,5.92c.07,17.12,0,34.25,0,51.38,0,.48,0,1,0,1.46a7.69,7.69,0,0,0,1.69,2.69,4.87,4.87,0,0,0,3.41,1.4h28.1q32.52,0,65,0a5.59,5.59,0,0,0,5.41-3.74,2,2,0,0,1,.21-.38c0-.22,0-.44,0-.66V70.87c0-.3,0-.59,0-.88ZM88.56,104a3.22,3.22,0,0,1-3.21,2.77c-6,0-12.09,0-18.14,0H65.43c-6.07,0-12.13,0-18.19,0A3.38,3.38,0,0,1,44,103.39c-.05-2.62,0-5.25,0-7.88,0-.6,0-1.2,0-1.8V75.16c0-.6,0-1.19,0-1.79,0-2.68-.05-5.36,0-8a3.43,3.43,0,0,1,3.29-3.23c6.06,0,12.13,0,18.19,0H67.2c6.08,0,12.15,0,18.22,0a3.41,3.41,0,0,1,3.26,3.57c0,2.56,0,5.12,0,7.68v1.79c0,1.41,0,2.82,0,4.23,0,4.77,0,9.55,0,14.32,0,.62,0,1.24,0,1.86A73.55,73.55,0,0,1,88.56,104Z"/></g></g></svg>